<svg width="24" height="24" viewBox="0 0 24 24" fill="none" xmlns="http://www.w3.org/2000/svg">
<path d="M19.0469 4.91C17.1769 3.03 14.6869 2 12.0369 2C6.57687 2 2.12688 6.45 2.12688 11.91C2.12688 13.66 2.58688 15.36 3.44688 16.86L2.04688 22L7.29688 20.62C8.74687 21.41 10.3769 21.83 12.0369 21.83C17.4969 21.83 21.9469 17.38 21.9469 11.92C21.9469 9.27 20.9169 6.78 19.0469 4.91ZM12.0369 20.15C10.5569 20.15 9.10687 19.75 7.83687 19L7.53687 18.82L4.41688 19.64L5.24688 16.6L5.04688 16.29C4.22688 14.98 3.78688 13.46 3.78688 11.91C3.78688 7.37 7.48687 3.67 12.0269 3.67C14.2269 3.67 16.2969 4.53 17.8469 6.09C19.4069 7.65 20.2569 9.72 20.2569 11.92C20.2769 16.46 16.5769 20.15 12.0369 20.15ZM16.5569 13.99C16.3069 13.87 15.0869 13.27 14.8669 13.18C14.6369 13.1 14.4769 13.06 14.3069 13.3C14.1369 13.55 13.6669 14.11 13.5269 14.27C13.3869 14.44 13.2369 14.46 12.9869 14.33C12.7369 14.21 11.9369 13.94 10.9969 13.1C10.2569 12.44 9.76687 11.63 9.61687 11.38C9.47687 11.13 9.59687 11 9.72687 10.87C9.83687 10.76 9.97688 10.58 10.0969 10.44C10.2169 10.3 10.2669 10.19 10.3469 10.03C10.4269 9.86 10.3869 9.72 10.3269 9.6C10.2669 9.48 9.76687 8.26 9.56687 7.76C9.36687 7.28 9.15688 7.34 9.00688 7.33C8.85687 7.33 8.69687 7.33 8.52687 7.33C8.35687 7.33 8.09687 7.39 7.86687 7.64C7.64687 7.89 7.00688 8.49 7.00688 9.71C7.00688 10.93 7.89688 12.11 8.01688 12.27C8.13688 12.44 9.76687 14.94 12.2469 16.01C12.8369 16.27 13.2969 16.42 13.6569 16.53C14.2469 16.72 14.7869 16.69 15.2169 16.63C15.6969 16.56 16.6869 16.03 16.8869 15.45C17.0969 14.87 17.0969 14.38 17.0269 14.27C16.9569 14.16 16.8069 14.11 16.5569 13.99Z" fill="#707070"/>
</svg>
