<svg viewBox="0 0 30 20" fill="none" xmlns="http://www.w3.org/2000/svg">
<path d="M15.0026 2.66667C20.0559 2.66667 24.5626 5.50667 26.7626 10C24.5626 14.4933 20.0559 17.3333 15.0026 17.3333C9.94927 17.3333 5.4426 14.4933 3.2426 10C5.4426 5.50667 9.94927 2.66667 15.0026 2.66667ZM15.0026 0C8.33594 0 2.6426 4.14667 0.335938 10C2.6426 15.8533 8.33594 20 15.0026 20C21.6693 20 27.3626 15.8533 29.6693 10C27.3626 4.14667 21.6693 0 15.0026 0ZM15.0026 6.66667C16.8426 6.66667 18.3359 8.16 18.3359 10C18.3359 11.84 16.8426 13.3333 15.0026 13.3333C13.1626 13.3333 11.6693 11.84 11.6693 10C11.6693 8.16 13.1626 6.66667 15.0026 6.66667ZM15.0026 4C11.6959 4 9.0026 6.69333 9.0026 10C9.0026 13.3067 11.6959 16 15.0026 16C18.3093 16 21.0026 13.3067 21.0026 10C21.0026 6.69333 18.3093 4 15.0026 4Z" fill="#013233"/>
</svg>
