<svg width="24" height="24" viewBox="0 0 24 24" fill="none" xmlns="http://www.w3.org/2000/svg">
<path d="M5.65187 2C3.6289 2 2 3.6289 2 5.65187V18.3481C2 20.3711 3.6289 22 5.65187 22H12.5331V14.1812H10.4656V11.3662H12.5331V8.96125C12.5331 7.07175 13.7547 5.33687 16.5687 5.33687C17.7081 5.33687 18.5506 5.44625 18.5506 5.44625L18.4843 8.07501C18.4843 8.07501 17.6251 8.06689 16.6875 8.06689C15.6727 8.06689 15.51 8.53445 15.51 9.31065V11.3663H18.565L18.4318 14.1813H15.51V22H18.3481C20.3711 22 22 20.3711 22 18.3481V5.65189C22 3.62892 20.3711 2.00002 18.3481 2.00002H5.65185L5.65187 2Z" fill="#707070"/>
</svg>
