<svg width="19" height="18" viewBox="0 0 19 18" fill="none" xmlns="http://www.w3.org/2000/svg">
<path d="M13.2578 11.2539H12.4678L12.1878 10.9839C13.1678 9.84391 13.7578 8.36391 13.7578 6.75391C13.7578 3.16391 10.8478 0.253906 7.25781 0.253906C3.66781 0.253906 0.757812 3.16391 0.757812 6.75391C0.757812 10.3439 3.66781 13.2539 7.25781 13.2539C8.86781 13.2539 10.3478 12.6639 11.4878 11.6839L11.7578 11.9639V12.7539L16.7578 17.7439L18.2478 16.2539L13.2578 11.2539ZM7.25781 11.2539C4.76781 11.2539 2.75781 9.24391 2.75781 6.75391C2.75781 4.26391 4.76781 2.25391 7.25781 2.25391C9.74781 2.25391 11.7578 4.26391 11.7578 6.75391C11.7578 9.24391 9.74781 11.2539 7.25781 11.2539Z" fill="white"/>
</svg>
