<svg width="77" height="24" viewBox="0 0 77 24" fill="none" xmlns="http://www.w3.org/2000/svg">
<path d="M20.8504 12.5065C20.8504 12.7027 20.8202 12.899 20.7598 13.0865C20.708 13.2479 20.6389 13.3962 20.5439 13.5357C20.3755 13.5009 20.1596 13.466 19.8962 13.4311C19.6285 13.3962 19.3608 13.3787 19.0931 13.3787C18.4541 13.37 17.8151 13.4485 17.1976 13.6099C16.6277 13.7625 16.1571 13.9457 15.7814 14.1507V23.5579C15.6217 23.6233 15.4533 23.6669 15.2849 23.6974C15.056 23.741 14.8186 23.7628 14.5854 23.7628C14.1105 23.7628 13.7521 23.6669 13.5146 23.4794C13.2771 23.2918 13.1606 22.9822 13.1562 22.5548V14.1027C13.1562 13.6927 13.2469 13.3526 13.4239 13.0865C13.601 12.8205 13.8687 12.5675 14.227 12.3277C14.702 12.018 15.3237 11.7607 16.0966 11.5557C16.8695 11.3508 17.7115 11.2461 18.6268 11.2461C20.1121 11.2461 20.8504 11.6691 20.8504 12.5065Z" fill="white"/>
<path d="M40.6928 8.29943V19.9919C40.7317 21.3657 41.2584 22.6828 42.1738 23.7033H36.4226C37.3768 22.6348 37.9036 21.2479 37.9036 19.8087V7.89384C36.2672 5.22913 33.547 3.41921 30.4598 2.96129C29.7042 2.79992 28.927 2.77375 28.1628 2.87842C27.8735 2.90023 27.5885 2.93076 27.3036 2.97873C27.4417 2.96129 27.5799 2.9482 27.7181 2.93948C28.4823 2.83045 29.2595 2.86098 30.0151 3.02234C33.0634 3.68089 35.2395 6.4023 35.2395 9.54675V9.67322C33.4606 6.04904 29.7992 3.75939 25.7967 3.75939C25.6412 3.75939 25.4858 3.76375 25.3347 3.76811C25.0583 3.7812 24.7777 3.803 24.5014 3.83789C24.497 3.84225 24.4884 3.84225 24.4841 3.84662C23.9012 3.94692 23.3269 4.09521 22.7656 4.29146C24.7518 1.5875 27.8908 -0.00435229 31.2241 8.93819e-06C35.0021 8.93819e-06 38.3138 2.00618 40.1747 5.02415C43.2317 2.71706 47.4069 2.29402 50.9258 4.14754C52.4716 4.96309 53.7799 6.16679 54.7298 7.64525C53.2833 5.80917 50.6754 5.42538 48.767 6.76864C48.659 6.84278 48.5554 6.92565 48.4561 7.01287C46.2411 8.64833 43.4432 9.07573 40.926 8.29943H40.6928Z" fill="white"/>
<path d="M69.6907 15.7234V23.5649C69.5266 23.6304 69.3539 23.6783 69.1812 23.7045C68.9567 23.7481 68.7235 23.7699 68.4947 23.7699C68.0025 23.7699 67.6441 23.674 67.4152 23.4864C67.1864 23.2989 67.0741 22.9893 67.0698 22.5619V18.2704V15.8281C67.0698 14.9864 66.8324 14.3671 66.3574 13.9659C65.8825 13.5646 65.2478 13.3597 64.449 13.3597C63.8531 13.3597 63.322 13.4382 62.8471 13.5908C62.4196 13.7216 62.0095 13.9048 61.6252 14.1316V18.2704V23.5649C61.4654 23.6304 61.297 23.674 61.1286 23.7045C60.8998 23.7481 60.6623 23.7699 60.4292 23.7699C59.9542 23.7699 59.5958 23.674 59.3584 23.4864C59.1209 23.2989 59 22.9893 59 22.5619V16.9315V14.0531C59 13.6606 59.082 13.3379 59.2418 13.0893C59.4015 12.8407 59.652 12.6052 59.9931 12.3827C60.468 12.0905 61.0898 11.8245 61.8627 11.5846C62.6355 11.3448 63.4948 11.2227 64.4447 11.2227C66.0897 11.2227 67.3764 11.5977 68.3004 12.3391C69.2287 13.0893 69.6907 14.2145 69.6907 15.7234Z" fill="white"/>
<path d="M75.9455 12.7147V18.1662V23.5654C75.7857 23.6309 75.6173 23.6745 75.449 23.705C75.2201 23.7486 74.9826 23.7704 74.7495 23.7704C74.2745 23.7704 73.9162 23.6745 73.6787 23.4869C73.4412 23.2994 73.3203 22.9898 73.3203 22.5624V11.6636C73.4844 11.6157 73.6485 11.5764 73.8169 11.5459C74.0543 11.5023 74.3004 11.4805 74.5422 11.4805C75.0172 11.4805 75.3712 11.5721 75.6001 11.7509C75.8332 11.934 75.9455 12.2524 75.9455 12.7147Z" fill="white"/>
<path d="M10.1942 21.8634C10.2546 22.0641 10.2848 22.2734 10.2848 22.4784C10.2848 22.8404 10.1985 23.1195 10.0301 23.3288C9.86169 23.5338 9.62421 23.6385 9.31766 23.6385H1.44212H1.42485C1.00171 23.6385 0.656294 23.5033 0.392913 23.2285C0.129532 22.9538 0 22.6049 0 22.1731V9.44702C0 9.00217 0.129532 8.64891 0.392913 8.3916C0.656294 8.13429 1.00171 8.00781 1.42485 8.00781C1.44212 8.00781 1.45507 8.00781 1.47234 8.00781H9.87464C9.94373 8.09504 10.0042 8.23024 10.0646 8.41777C10.1251 8.61839 10.1553 8.82772 10.1553 9.0327C10.1553 9.39468 10.0689 9.67816 9.90055 9.89623C9.73216 10.1099 9.49468 10.219 9.18812 10.219H2.62518V14.5104H9.11472C9.19676 14.6456 9.26152 14.7939 9.3047 14.9465C9.36515 15.1471 9.39969 15.3565 9.39537 15.5658C9.39537 15.9278 9.30902 16.2069 9.14063 16.4163C8.97224 16.6212 8.73476 16.7259 8.4282 16.7259H2.62518V21.4317H10.0085C10.0862 21.5625 10.151 21.7064 10.1942 21.8634Z" fill="white"/>
<path d="M31.0134 12.265C30.0894 11.5716 28.8372 11.2227 27.2612 11.2227C26.6265 11.2227 25.9875 11.2837 25.3658 11.4058C24.8001 11.5105 24.2475 11.6806 23.725 11.9205C23.1292 12.1952 22.8356 12.5964 22.8356 13.1285C22.8356 13.3553 22.9047 13.5777 23.0256 13.7696C23.1378 13.9571 23.276 14.1229 23.4444 14.2581C23.9884 14.0008 24.5497 13.7827 25.124 13.617C25.7587 13.4294 26.4193 13.3335 27.0842 13.3335C27.9478 13.3335 28.6256 13.5079 29.1092 13.8612C29.5928 14.2145 29.8346 14.764 29.8346 15.5185V16.1116L26.2984 16.4736C24.9599 16.5913 23.9236 16.9533 23.1939 17.5639C22.4643 18.1701 22.1016 19.0423 22.1016 20.1719C22.1016 21.4236 22.5636 22.3743 23.4876 23.0242C24.4115 23.674 25.6982 24.0011 27.3433 24.0011C28.2241 24.0011 29.0186 23.9051 29.7224 23.7176C30.4261 23.5301 31.0004 23.3076 31.4408 23.0503C31.7474 22.8802 31.9848 22.6796 32.1532 22.4572C32.3216 22.2348 32.408 21.9251 32.408 21.5326V15.5446C32.3993 14.0531 31.9373 12.9584 31.0134 12.265ZM29.8562 21.3538C29.6533 21.4759 29.3338 21.598 28.902 21.7245C28.4702 21.8553 27.9478 21.9164 27.3346 21.9164C26.4366 21.9164 25.763 21.755 25.3226 21.4279C24.8822 21.1008 24.662 20.656 24.662 20.089C24.662 19.5395 24.8606 19.1252 25.2621 18.8417C25.6637 18.5582 26.2509 18.3925 27.0324 18.3402L29.8562 18.0305V21.3538Z" fill="white"/>
<path d="M54.1739 12.265C53.2499 11.5716 51.9978 11.2227 50.4175 11.2227C49.7828 11.2227 49.1481 11.2837 48.522 11.4015C47.9564 11.5061 47.4037 11.6762 46.8813 11.9161C46.2854 12.1909 45.9918 12.5921 45.9918 13.1242C45.9918 13.3509 46.0609 13.5734 46.1818 13.7653C46.2941 13.9528 46.4322 14.1185 46.6006 14.2537C47.1447 13.9964 47.706 13.7783 48.2802 13.6126C48.9149 13.4251 49.5755 13.3291 50.2405 13.3291C51.104 13.3291 51.7819 13.5036 52.2655 13.8568C52.7491 14.2101 52.9909 14.7596 52.9909 15.5141V16.1072L49.4546 16.4692C48.1162 16.587 47.0799 16.949 46.3502 17.5595C45.6205 18.1657 45.2578 19.038 45.2578 20.1675C45.2578 21.4192 45.7198 22.37 46.6438 23.0198C47.5678 23.6696 48.8545 23.9967 50.4995 23.9967C51.3847 23.9967 52.1748 23.9008 52.8786 23.7132C53.5824 23.5257 54.1567 23.3033 54.5971 23.046C54.9036 22.8759 55.1411 22.6753 55.3095 22.4528C55.4779 22.2304 55.5642 21.9208 55.5642 21.5282V15.5446C55.5642 14.0531 55.0979 12.9584 54.1739 12.265ZM53.0168 21.3538C52.8138 21.4759 52.4943 21.598 52.0626 21.7245C51.6308 21.851 51.1083 21.9164 50.4952 21.9164C49.5971 21.9164 48.9236 21.755 48.4832 21.4279C48.0428 21.1008 47.8225 20.656 47.8225 20.089C47.8225 19.5395 48.0212 19.1252 48.4184 18.8417C48.8199 18.5582 49.4072 18.3925 50.1887 18.3402L53.0125 18.0305V21.3538H53.0168Z" fill="white"/>
<path d="M73.047 7.9067C73.047 7.46186 73.1981 7.09115 73.5046 6.80331C73.8112 6.51111 74.1825 6.36719 74.6229 6.36719C75.0979 6.36719 75.4778 6.51111 75.7671 6.80331C76.0564 7.09551 76.1989 7.46186 76.1989 7.9067C76.2075 8.31666 76.0521 8.70917 75.7671 8.99701C75.4778 9.29794 75.0979 9.44622 74.6229 9.44622C74.2041 9.45494 73.7982 9.29357 73.5046 8.99701C73.2067 8.71789 73.0426 8.32102 73.047 7.9067Z" fill="white"/>
</svg>
