<svg width="110" height="35" viewBox="0 0 110 35" fill="none" xmlns="http://www.w3.org/2000/svg">
<path d="M30.0993 18.0558C30.0993 18.3391 30.0557 18.6224 29.9684 18.8931C29.8936 19.1261 29.7939 19.3401 29.6568 19.5416C29.4137 19.4912 29.1021 19.4409 28.7219 19.3905C28.3354 19.3401 27.949 19.315 27.5625 19.315C26.64 19.3024 25.7176 19.4157 24.8262 19.6486C24.0035 19.869 23.3241 20.1334 22.7818 20.4293V34.0093C22.5512 34.1037 22.3081 34.1667 22.065 34.2108C21.7347 34.2737 21.3919 34.3052 21.0553 34.3052C20.3697 34.3052 19.8523 34.1667 19.5095 33.896C19.1667 33.6252 18.9984 33.1782 18.9922 32.5613V20.3601C18.9922 19.7683 19.1231 19.2772 19.3786 18.8931C19.6342 18.5091 20.0206 18.1439 20.538 17.7977C21.2236 17.3507 22.1211 16.9792 23.2368 16.6833C24.3525 16.3874 25.568 16.2363 26.8894 16.2363C29.0335 16.2363 30.0993 16.847 30.0993 18.0558Z" fill="white"/>
<path d="M58.7387 11.9809V28.8598C58.7948 30.843 59.5552 32.7443 60.8766 34.2175H52.5743C53.9517 32.6751 54.7122 30.673 54.7122 28.5954V11.3954C52.3499 7.54864 48.4231 4.9359 43.9665 4.27484C42.8758 4.0419 41.7538 4.00412 40.6506 4.15522C40.233 4.1867 39.8216 4.23077 39.4102 4.30002C39.6097 4.27484 39.8091 4.25595 40.0086 4.24336C41.1118 4.08597 42.2338 4.13004 43.3245 4.36298C47.725 5.31364 50.8664 9.2422 50.8664 13.7815V13.964C48.2984 8.73225 43.0129 5.42697 37.2349 5.42697C37.0105 5.42697 36.7861 5.43326 36.568 5.43956C36.1691 5.45845 35.7639 5.48992 35.365 5.54029C35.3588 5.54659 35.3463 5.54659 35.3401 5.55288C34.4986 5.69768 33.6697 5.91174 32.8594 6.19505C35.7265 2.29167 40.2579 -0.00628287 45.0698 1.2903e-05C50.5236 1.2903e-05 55.3043 2.89607 57.9907 7.25274C62.4036 3.92228 68.4309 3.31159 73.5108 5.98729C75.7422 7.1646 77.6308 8.90223 79.002 11.0365C76.914 8.38598 73.1493 7.83195 70.3943 9.77105C70.2385 9.87808 70.0889 9.9977 69.9455 10.1236C66.748 12.4845 62.7091 13.1015 59.0752 11.9809H58.7387Z" fill="white"/>
<path d="M100.605 22.6965V34.0162C100.368 34.1107 100.119 34.1799 99.8692 34.2177C99.5451 34.2807 99.2085 34.3122 98.8782 34.3122C98.1676 34.3122 97.6503 34.1736 97.3199 33.9029C96.9896 33.6322 96.8275 33.1852 96.8213 32.5682V26.3732V22.8476C96.8213 21.6325 96.4785 20.7385 95.7928 20.1593C95.1072 19.58 94.191 19.2841 93.0379 19.2841C92.1777 19.2841 91.4111 19.3975 90.7254 19.6178C90.1084 19.8067 89.5163 20.0711 88.9615 20.3985V26.3732V34.0162C88.7309 34.1107 88.4878 34.1736 88.2447 34.2177C87.9144 34.2807 87.5716 34.3122 87.235 34.3122C86.5494 34.3122 86.032 34.1736 85.6892 33.9029C85.3464 33.6322 85.1719 33.1852 85.1719 32.5682V24.4404V20.2852C85.1719 19.7186 85.2903 19.2527 85.5209 18.8938C85.7515 18.535 86.1131 18.195 86.6055 17.8739C87.2911 17.4521 88.1886 17.068 89.3043 16.7218C90.42 16.3755 91.6604 16.1992 93.0316 16.1992C95.4064 16.1992 97.2638 16.7407 98.5977 17.8109C99.9378 18.8938 100.605 20.5181 100.605 22.6965Z" fill="white"/>
<path d="M109.633 18.352V26.2217V34.0159C109.403 34.1103 109.16 34.1733 108.917 34.2174C108.586 34.2803 108.243 34.3118 107.907 34.3118C107.221 34.3118 106.704 34.1733 106.361 33.9026C106.018 33.6318 105.844 33.1848 105.844 32.5679V16.8347C106.081 16.7655 106.317 16.7088 106.561 16.6647C106.903 16.6018 107.259 16.5703 107.608 16.5703C108.293 16.5703 108.804 16.7025 109.135 16.9606C109.471 17.2251 109.633 17.6847 109.633 18.352Z" fill="white"/>
<path d="M14.716 31.5661C14.8033 31.8557 14.8469 32.1579 14.8469 32.4538C14.8469 32.9764 14.7223 33.3793 14.4792 33.6815C14.2361 33.9774 13.8933 34.1285 13.4507 34.1285H2.08181H2.05688C1.44605 34.1285 0.947411 33.9333 0.5672 33.5367C0.186989 33.1401 0 32.6364 0 32.0131V13.6421C0 12.9999 0.186989 12.4899 0.5672 12.1185C0.947411 11.747 1.44605 11.5645 2.05688 11.5645C2.08181 11.5645 2.10051 11.5645 2.12544 11.5645H14.2548C14.3545 11.6904 14.4418 11.8855 14.529 12.1563C14.6163 12.4459 14.6599 12.7481 14.6599 13.044C14.6599 13.5665 14.5353 13.9757 14.2922 14.2905C14.0491 14.599 13.7063 14.7564 13.2638 14.7564H3.78964V20.9514H13.1578C13.2762 21.1466 13.3697 21.3607 13.432 21.581C13.5193 21.8706 13.5692 22.1728 13.5629 22.475C13.5629 22.9976 13.4383 23.4005 13.1952 23.7027C12.9521 23.9986 12.6093 24.1497 12.1668 24.1497H3.78964V30.9428H14.448C14.5602 31.1317 14.6537 31.3395 14.716 31.5661Z" fill="white"/>
<path d="M44.7711 17.7039C43.4372 16.7029 41.6297 16.1992 39.3546 16.1992C38.4384 16.1992 37.5159 16.2874 36.6184 16.4636C35.8019 16.6147 35.004 16.8603 34.2498 17.2065C33.3897 17.6032 32.9659 18.1824 32.9659 18.9505C32.9659 19.2779 33.0656 19.5989 33.2401 19.876C33.4022 20.1467 33.6016 20.3859 33.8447 20.5811C34.6301 20.2096 35.4403 19.8948 36.2693 19.6556C37.1856 19.3849 38.1392 19.2464 39.0991 19.2464C40.3457 19.2464 41.3243 19.4982 42.0224 20.0082C42.7205 20.5181 43.0695 21.3114 43.0695 22.4006V23.2568L37.9647 23.7793C36.0325 23.9493 34.5366 24.4719 33.4832 25.3533C32.4298 26.2284 31.9062 27.4875 31.9062 29.1181C31.9062 30.925 32.5732 32.2975 33.907 33.2356C35.2409 34.1736 37.0983 34.6458 39.4731 34.6458C40.7446 34.6458 41.8915 34.5073 42.9074 34.2366C43.9234 33.9659 44.7524 33.6448 45.3882 33.2734C45.8307 33.0278 46.1735 32.7382 46.4166 32.4171C46.6597 32.096 46.7843 31.649 46.7843 31.0824V22.4383C46.7719 20.2852 46.105 18.7049 44.7711 17.7039ZM43.1007 30.8243C42.8077 31.0006 42.3465 31.1769 41.7232 31.3594C41.0999 31.5483 40.3457 31.6365 39.4606 31.6365C38.1642 31.6365 37.1918 31.4035 36.556 30.9313C35.9203 30.4591 35.6024 29.817 35.6024 28.9985C35.6024 28.2053 35.8891 27.6072 36.4688 27.1979C37.0485 26.7887 37.8961 26.5495 39.0243 26.4739L43.1007 26.0269V30.8243Z" fill="white"/>
<path d="M78.207 17.7039C76.8732 16.7029 75.0656 16.1992 72.7843 16.1992C71.8681 16.1992 70.9518 16.2874 70.0481 16.4573C69.2315 16.6084 68.4337 16.854 67.6795 17.2002C66.8194 17.5969 66.3955 18.1761 66.3955 18.9442C66.3955 19.2716 66.4953 19.5926 66.6698 19.8697C66.8319 20.1404 67.0313 20.3796 67.2744 20.5748C68.0597 20.2033 68.87 19.8885 69.699 19.6493C70.6153 19.3786 71.5689 19.2401 72.5288 19.2401C73.7754 19.2401 74.754 19.4919 75.4521 20.0019C76.1501 20.5118 76.4992 21.3051 76.4992 22.3943V23.2505L71.3944 23.773C69.4622 23.943 67.9663 24.4656 66.9129 25.347C65.8595 26.2221 65.3359 27.4812 65.3359 29.1118C65.3359 30.9187 66.0029 32.2912 67.3367 33.2293C68.6706 34.1673 70.528 34.6395 72.9028 34.6395C74.1805 34.6395 75.3212 34.501 76.3371 34.2303C77.3531 33.9596 78.1821 33.6385 78.8179 33.2671C79.2604 33.0215 79.6032 32.7319 79.8463 32.4108C80.0894 32.0897 80.214 31.6427 80.214 31.0761V22.4383C80.214 20.2852 79.5409 18.7049 78.207 17.7039ZM76.5366 30.8243C76.2436 31.0006 75.7824 31.1769 75.1591 31.3594C74.5358 31.542 73.7816 31.6365 72.8965 31.6365C71.6001 31.6365 70.6277 31.4035 69.992 30.9313C69.3562 30.4591 69.0383 29.817 69.0383 28.9985C69.0383 28.2053 69.325 27.6072 69.8985 27.1979C70.4781 26.7887 71.3258 26.5495 72.454 26.4739L76.5303 26.0269V30.8243H76.5366Z" fill="white"/>
<path d="M105.453 11.4138C105.453 10.7716 105.671 10.2365 106.114 9.82098C106.556 9.39917 107.093 9.19141 107.728 9.19141C108.414 9.19141 108.962 9.39917 109.38 9.82098C109.798 10.2428 110.003 10.7716 110.003 11.4138C110.016 12.0056 109.791 12.5722 109.38 12.9878C108.962 13.4222 108.414 13.6362 107.728 13.6362C107.124 13.6488 106.538 13.4159 106.114 12.9878C105.684 12.5848 105.447 12.0119 105.453 11.4138Z" fill="white"/>
</svg>
