<svg width="140" height="118" viewBox="0 0 140 118" fill="none" xmlns="http://www.w3.org/2000/svg">
<path d="M76.7346 90.3057C76.7346 82.9724 78.6513 76.8224 82.4846 71.8307C85.2013 68.3974 88.8846 66.1391 93.543 65.0641C98.1263 63.9974 102.46 63.9224 106.376 64.8307C107.71 56.9141 105.543 48.5307 100.043 39.6474C94.543 30.7724 87.418 24.0891 78.7263 19.6224L91.9013 0.664062C98.568 3.96406 104.901 8.1474 110.735 13.2057C116.651 18.2641 121.901 24.0807 126.568 30.6557C131.235 37.2307 134.735 44.6557 136.985 53.0724C139.235 61.4891 139.86 70.0724 138.785 78.9057C137.385 90.5724 133.618 99.9057 127.485 106.822C121.36 113.831 113.718 117.331 104.585 117.331C96.543 117.331 89.868 114.914 84.5846 110.014C79.3513 105.214 76.7513 98.6391 76.7513 90.2807L76.7346 90.3057ZM0.701309 90.3057C0.701309 82.9724 2.61798 76.8224 6.45132 71.8307C9.16798 68.3307 12.868 66.0641 17.5097 65.0224C22.1763 63.9891 26.4513 63.9391 30.343 64.8391C31.6763 57.0057 29.593 48.5891 24.0763 39.6724C18.5763 30.8391 11.468 24.1724 2.77632 19.6724L15.918 0.664062C22.5846 3.96406 28.8763 8.1474 34.7513 13.2057C40.7219 18.339 46.0245 24.2015 50.5346 30.6557C55.168 37.2391 58.618 44.6557 60.868 53.0724C63.1446 61.484 63.7588 70.2589 62.6763 78.9057C61.293 90.5724 57.543 99.9057 51.4263 106.822C45.318 113.772 37.7013 117.256 28.568 117.256C20.5096 117.256 13.8346 114.839 8.55132 109.947C3.32631 105.147 0.701309 98.5724 0.701309 90.2141V90.3057Z" fill="#5DD291"/>
</svg>
