<svg width="24" height="20" viewBox="0 0 24 20" fill="none" xmlns="http://www.w3.org/2000/svg">
<path d="M23.6435 2.93952C22.8085 3.30952 21.9115 3.55952 20.9685 3.67252C21.9415 3.09031 22.6694 2.17398 23.0165 1.09452C22.1023 1.63751 21.1018 2.01971 20.0585 2.22452C19.3569 1.47538 18.4276 0.978845 17.4148 0.811992C16.4021 0.64514 15.3626 0.81731 14.4577 1.30177C13.5529 1.78623 12.8333 2.55588 12.4107 3.49122C11.988 4.42656 11.886 5.47527 12.1205 6.47452C10.2682 6.38151 8.45613 5.90007 6.80192 5.06142C5.14772 4.22278 3.68834 3.04568 2.5185 1.60652C2.1185 2.29652 1.8885 3.09652 1.8885 3.94852C1.88805 4.71551 2.07693 5.47076 2.43838 6.14725C2.79982 6.82374 3.32266 7.40056 3.9605 7.82652C3.22078 7.80298 2.49737 7.6031 1.8505 7.24352V7.30352C1.85043 8.37926 2.22253 9.4219 2.90368 10.2545C3.58483 11.0871 4.53307 11.6584 5.5875 11.8715C4.90128 12.0572 4.18184 12.0846 3.4835 11.9515C3.781 12.8771 4.3605 13.6865 5.14087 14.2664C5.92124 14.8463 6.86342 15.1677 7.8355 15.1855C6.18533 16.4809 4.14739 17.1836 2.0495 17.1805C1.67788 17.1806 1.30658 17.1589 0.9375 17.1155C3.06698 18.4847 5.54584 19.2113 8.0775 19.2085C16.6475 19.2085 21.3325 12.1105 21.3325 5.95452C21.3325 5.75452 21.3275 5.55252 21.3185 5.35252C22.2298 4.69349 23.0164 3.87741 23.6415 2.94252L23.6435 2.93952Z" fill="#707070"/>
</svg>
