<svg width="20" height="20" viewBox="0 0 20 20" fill="none" xmlns="http://www.w3.org/2000/svg">
<path d="M17.0469 2.91C15.1769 1.03 12.6869 0 10.0369 0C4.57687 0 0.126875 4.45 0.126875 9.91C0.126875 11.66 0.586875 13.36 1.44688 14.86L0.046875 20L5.29688 18.62C6.74687 19.41 8.37687 19.83 10.0369 19.83C15.4969 19.83 19.9469 15.38 19.9469 9.92C19.9469 7.27 18.9169 4.78 17.0469 2.91ZM10.0369 18.15C8.55688 18.15 7.10687 17.75 5.83687 17L5.53687 16.82L2.41688 17.64L3.24688 14.6L3.04688 14.29C2.22688 12.98 1.78688 11.46 1.78688 9.91C1.78688 5.37 5.48687 1.67 10.0269 1.67C12.2269 1.67 14.2969 2.53 15.8469 4.09C17.4069 5.65 18.2569 7.72 18.2569 9.92C18.2769 14.46 14.5769 18.15 10.0369 18.15ZM14.5569 11.99C14.3069 11.87 13.0869 11.27 12.8669 11.18C12.6369 11.1 12.4769 11.06 12.3069 11.3C12.1369 11.55 11.6669 12.11 11.5269 12.27C11.3869 12.44 11.2369 12.46 10.9869 12.33C10.7369 12.21 9.93687 11.94 8.99687 11.1C8.25688 10.44 7.76687 9.63 7.61687 9.38C7.47687 9.13 7.59687 9 7.72687 8.87C7.83687 8.76 7.97688 8.58 8.09688 8.44C8.21688 8.3 8.26688 8.19 8.34688 8.03C8.42688 7.86 8.38688 7.72 8.32687 7.6C8.26687 7.48 7.76687 6.26 7.56687 5.76C7.36687 5.28 7.15688 5.34 7.00688 5.33C6.85687 5.33 6.69687 5.33 6.52687 5.33C6.35687 5.33 6.09687 5.39 5.86687 5.64C5.64687 5.89 5.00688 6.49 5.00688 7.71C5.00688 8.93 5.89688 10.11 6.01688 10.27C6.13688 10.44 7.76687 12.94 10.2469 14.01C10.8369 14.27 11.2969 14.42 11.6569 14.53C12.2469 14.72 12.7869 14.69 13.2169 14.63C13.6969 14.56 14.6869 14.03 14.8869 13.45C15.0969 12.87 15.0969 12.38 15.0269 12.27C14.9569 12.16 14.8069 12.11 14.5569 11.99Z" fill="#707070"/>
</svg>
