<svg width="24" height="24" viewBox="0 0 24 24" fill="none" xmlns="http://www.w3.org/2000/svg">
<path d="M23.6435 4.93952C22.8085 5.30952 21.9115 5.55952 20.9685 5.67252C21.9415 5.09031 22.6694 4.17398 23.0165 3.09452C22.1023 3.63751 21.1018 4.01971 20.0585 4.22452C19.3569 3.47538 18.4276 2.97884 17.4148 2.81199C16.4021 2.64514 15.3626 2.81731 14.4577 3.30177C13.5529 3.78623 12.8333 4.55588 12.4107 5.49122C11.988 6.42656 11.886 7.47527 12.1205 8.47452C10.2682 8.38151 8.45613 7.90007 6.80192 7.06142C5.14772 6.22278 3.68834 5.04568 2.5185 3.60652C2.1185 4.29652 1.8885 5.09652 1.8885 5.94852C1.88805 6.71551 2.07693 7.47076 2.43838 8.14725C2.79982 8.82374 3.32266 9.40056 3.9605 9.82652C3.22078 9.80298 2.49737 9.6031 1.8505 9.24352V9.30352C1.85043 10.3793 2.22253 11.4219 2.90368 12.2545C3.58483 13.0871 4.53307 13.6584 5.5875 13.8715C4.90128 14.0572 4.18184 14.0846 3.4835 13.9515C3.781 14.8771 4.3605 15.6865 5.14087 16.2664C5.92124 16.8463 6.86342 17.1677 7.8355 17.1855C6.18533 18.4809 4.14739 19.1836 2.0495 19.1805C1.67788 19.1806 1.30658 19.1589 0.9375 19.1155C3.06698 20.4847 5.54584 21.2113 8.0775 21.2085C16.6475 21.2085 21.3325 14.1105 21.3325 7.95452C21.3325 7.75452 21.3275 7.55252 21.3185 7.35252C22.2298 6.69349 23.0164 5.87741 23.6415 4.94252L23.6435 4.93952Z" fill="#707070"/>
</svg>
